#!OML:ASF E:/inclinewalkrobotboard/Project1/Captureday1/Session1/subject1.ASF
:FULLY-SPECIFIED
:DEGREES
151
root 0 0 0 1.1057929976450036 -3.704740988165116 1.8135957433355636
lowerback 11.910281513591505 0.8626027859573147 -0.02878545792847645
upperback -4.22565172381769 1.0971079421781087 -0.5455105852538427
thorax -11.289097477932298 0.5010873469773333 -0.8073939122589537
lowerneck -5.818153143833845 1.4755178739788386 4.5675095610520495
upperneck 18.089009463398252 2.9314706543406617 -8.331387925613647
head 6.6141940203516345 1.0655480353291493 -3.222122312639453
rclavicle 1.4623908725096976E-15 -1.2193552102072091E-15
rhumerus 19.413791270597045 14.032046262841792 -48.379867696365444
rradius 71.74080884812554
rwrist 26.664394083542295
rhand -34.620009553623476 -56.26298396367545
rfingers 7.125020000000028
rthumb -7.761849854372258 -86.19408504331456
lclavicle 1.2742624191635987E-15 -1.9045477899081842E-15
lhumerus 20.741422115808184 -12.307171564598175 44.867352210507704
lradius 69.75438917408434
lwrist -22.665713318298675
lhand -44.48920843658625 -69.25873315283246
lfingers 7.12502000000002
lthumb -17.31638834391405 -39.98286255599139
rfemur -24.644712388325793 -2.0973309597447356 17.182581263669505
rtibia 53.83764644765832
rfoot -29.096938505439308 -17.030531963636527
rtoes -18.31857968897016
lfemur -26.247522253101597 2.5186519633072164 -18.018582898008127
ltibia 54.20103802538981
lfoot -31.064638887888997 -3.4491047090064115
ltoes -20.151280386069992
152
root 0 0 0 1.1055043524295989 -3.7049599950996184 1.813626601631535
lowerback 11.91028880328446 0.8625692415513342 -0.0287457719936422
upperback -4.225509196735565 1.0970772629389216 -0.5454666028083184
thorax -11.28894199115078 0.5010706763794192 -0.8073586840223113
lowerneck -5.817266551709276 1.4753981541657146 4.567683812928034
upperneck 18.08853909555601 2.9313423688105136 -8.331860192255554
head 6.613894426106605 1.0654890739846934 -3.2223142504961997
rclavicle 1.4485132128507E-15 -1.2108706342536786E-15
rhumerus 19.41415172648462 14.031778878197127 -48.37727004972024
rradius 71.74064698316667
rwrist 26.666099534838295
rhand -34.617213427857095 -56.2603910589323
rfingers 7.125020000000028
rthumb -7.759198836063371 -86.19157101891345
lclavicle 1.2433849889375103E-15 -1.891687250785964E-15
lhumerus 20.742263008030342 -12.307645067599841 44.86788026206588
lradius 69.75480791594514
lwrist -22.665686747407513
lhand -44.48992670651139 -69.25913529628008
lfingers 7.12502000000002
lthumb -17.31701674381339 -39.98260410919903
rfemur -24.645066354736247 -2.0970901837503746 17.18189147374087
rtibia 53.836722395297876
rfoot -29.09574173569957 -17.029553860035023
rtoes -18.31818742731475
lfemur -26.24548010968949 2.5192750477803685 -18.018321530197078
ltibia 54.200114022528325
lfoot -31.06348763553455 -3.447509924632562
ltoes -20.15527909715091
153
root 0 0 0 1.1053356170163045 -3.7050779938883944 1.813642773938076
lowerback 11.910291954297039 0.8625487001612026 -0.028717347532572435
upperback -4.225415743812609 1.0970594256767725 -0.5454394827382745
thorax -11.288838772319146 0.5010606300228277 -0.8073387393759185
lowerneck -5.816705636865177 1.4753070288407768 4.567789042457239
upperneck 18.088219749379647 2.9312379696168516 -8.33215003407529
head 6.613697872673874 1.065441667785342 -3.2224346339407144
rclavicle 1.4543921428615008E-15 -1.211616884475956E-15
rhumerus 19.414507915341424 14.032215575913725 -48.37734824344576
rradius 71.7408108684774
rwrist 26.66588522701411
rhand -34.61672093465561 -56.25962176307709
rfingers 7.125020000000028
rthumb -7.7587235436207225 -86.19075479549761
lclavicle 1.2479859722055617E-15 -1.8928382050350177E-15
lhumerus 20.742327273307012 -12.30797230944855 44.867505227006845
lradius 69.75490798853356
lwrist -22.665747311063768
lhand -44.48967342871665 -69.2578512129942
lfingers 7.12502000000002
lthumb -17.316778636110673 -39.98143829377692
rfemur -24.645122589495543 -2.097064787776161 17.18188401626446
rtibia 53.836625650313735
rfoot -29.095732735023674 -17.029516361848437
rtoes -18.31815461656631
lfemur -26.24527291125863 2.5193566642792433 -18.018316051460975
ltibia 54.1999485809152
lfoot -31.06336614565843 -3.4474336360442885
ltoes -20.155939780909115
154
root 0 0 0 1.1051377203807484 -3.705221131835684 1.8136603144772558
lowerback 11.910291973128826 0.8625248779642425 -0.02868273914019695
upperback -4.225309403170711 1.0970388591358164 -0.5454078625437981
thorax -11.288719136177479 0.5010489625487791 -0.8073163892489538
lowerneck -5.8160444085286365 1.4752023240329653 4.567913492890218
upperneck 18.087845139187507 2.931118845538186 -8.332489689587657
head 6.613466604628368 1.0653876253485033 -3.222575535050792
rclavicle 1.4574844987533252E-15 -1.2116505216507263E-15
rhumerus 19.415174000166495 14.03293826766636 -48.37718696696451
rradius 71.74121239436928
rwrist 26.665643356130868
rhand -34.61587220496121 -56.258485066758205
rfingers 7.125020000000028
rthumb -7.75789856172819 -86.18963617520279
lclavicle 1.2507284480834013E-15 -1.8931302204029545E-15
lhumerus 20.742368353038284 -12.308311388418893 44.86717502186973
lradius 69.7550297838475
lwrist -22.66578018322505
lhand -44.489381731714275 -69.25623418904453
lfingers 7.12502000000002
lthumb -17.31649534155349 -39.97985874103216
rfemur -24.645073068355703 -2.0970478381290123 17.181906027291525
rtibia 53.8366805781543
rfoot -29.095758104382895 -17.029460180257765
rtoes -18.318207288666073
lfemur -26.245107144180235 2.51945295100803 -18.018308800335483
ltibia 54.19998489644489
lfoot -31.063307746926874 -3.4473680380682126
ltoes -20.156505708714207
155
root 0 0 0 1.1058717468611405 -3.7046848456986052 1.8135885766449162
lowerback 11.910280578748136 0.8626123459377866 -0.028799460518482145
upperback -4.225695413558635 1.0971161334312076 -0.5455233703151523
thorax -11.289146098159963 0.5010920053772164 -0.807402944536564
lowerneck -5.818418748879737 1.4755611185050526 4.567459781967487
upperneck 18.089161943009028 2.931520248894338 -8.331251100965517
head 6.614287540317409 1.0655705296698035 -3.2220654289838695
rclavicle 1.4619493131474007E-15 -1.2193957518618167E-15
rhumerus 19.413632054079923 14.031879665586287 -48.379930471835415
rradius 71.74071898208983
rwrist 26.664440398623892
rhand -34.620236282578055 -56.263283307297016
rfingers 7.125020000000028
rthumb -7.762069555066919 -86.19437588330172
lclavicle 1.2739307704486838E-15 -1.9045524867516176E-15
lhumerus 20.74139622058796 -12.307073499869501 44.86744613635675
lradius 69.75434841971129
lwrist -22.665701267331777
lhand -44.4892772131508 -69.25915352078279
lfingers 7.12502000000002
lthumb -17.316455366719254 -39.98328053491089
rfemur -24.64471143318358 -2.0973301692520603 17.182578142597173
rtibia 53.8376332359884
rfoot -29.09691757888916 -17.03053553992067
rtoes -18.318573699583958
lfemur -26.24757469397363 2.518622126516544 -18.01858470269172
ltibia 54.20103864809925
lfoot -31.064652451064447 -3.449135467417037
ltoes -20.151094691975015
